<svg width="18" height="18" viewBox="0 0 18 18" fill="none" xmlns="http://www.w3.org/2000/svg">
<path d="M12.125 7.74999C12.125 8.61529 11.8684 9.46115 11.3877 10.1806C10.907 10.9001 10.2237 11.4608 9.42426 11.792C8.62484 12.1231 7.74517 12.2097 6.8965 12.0409C6.04784 11.8721 5.26829 11.4554 4.65643 10.8436C4.04458 10.2317 3.6279 9.45218 3.45909 8.60351C3.29028 7.75485 3.37692 6.87518 3.70805 6.07575C4.03918 5.27633 4.59994 4.59304 5.3194 4.11231C6.03887 3.63158 6.88473 3.37499 7.75002 3.37499C8.91035 3.37499 10.0231 3.83593 10.8436 4.6564C11.6641 5.47687 12.125 6.58967 12.125 7.74999ZM16.9422 16.9422C16.8842 17.0003 16.8152 17.0464 16.7394 17.0778C16.6635 17.1093 16.5822 17.1255 16.5 17.1255C16.4179 17.1255 16.3366 17.1093 16.2607 17.0778C16.1848 17.0464 16.1159 17.0003 16.0578 16.9422L12.1469 13.0305C10.7868 14.162 9.04291 14.7256 7.27788 14.6041C5.51286 14.4826 3.86262 13.6853 2.67041 12.3782C1.4782 11.071 0.835805 9.35452 0.876853 7.58579C0.9179 5.81707 1.63923 4.13226 2.89079 2.8818C4.14236 1.63134 5.82781 0.911499 7.59657 0.872014C9.36533 0.83253 11.0812 1.47644 12.3873 2.6698C13.6935 3.86317 14.4893 5.51412 14.6092 7.27925C14.7291 9.04437 14.164 10.7878 13.0313 12.1469L16.9422 16.0578C17.0003 16.1159 17.0464 16.1848 17.0779 16.2607C17.1093 16.3365 17.1255 16.4179 17.1255 16.5C17.1255 16.5821 17.1093 16.6635 17.0779 16.7393C17.0464 16.8152 17.0003 16.8841 16.9422 16.9422ZM7.75002 13.375C8.86254 13.375 9.95008 13.0451 10.8751 12.427C11.8001 11.8089 12.5211 10.9304 12.9468 9.90259C13.3726 8.87475 13.484 7.74375 13.2669 6.65261C13.0499 5.56147 12.5142 4.55919 11.7275 3.77252C10.9408 2.98585 9.93855 2.45012 8.84741 2.23308C7.75626 2.01603 6.62526 2.12743 5.59743 2.55317C4.5696 2.97891 3.69109 3.69988 3.07301 4.62491C2.45492 5.54994 2.12502 6.63747 2.12502 7.74999C2.12668 9.24133 2.71984 10.6711 3.77438 11.7256C4.82891 12.7802 6.25869 13.3733 7.75002 13.375Z" fill="#E4875D"/>
</svg>
